<svg width="16" height="15" viewBox="0 0 16 15" fill="none" xmlns="http://www.w3.org/2000/svg">
<path opacity="0.15" d="M14.7978 3.94763H3.01514V13.7987C3.01514 14.1173 3.14181 14.4228 3.36728 14.6481C3.59276 14.8734 3.89857 15 4.21745 15H14.7978C15.1166 15 15.4224 14.8734 15.6479 14.6481C15.8734 14.4228 16.0001 14.1173 16.0001 13.7987V5.14898C16.0001 4.83036 15.8734 4.52479 15.6479 4.2995C15.4224 4.0742 15.1166 3.94763 14.7978 3.94763Z" fill="#B76A8A"/>
<path d="M13.504 1.78516H1.48092C1.21532 1.78516 1 2.0003 1 2.26569V12.357C1 12.6224 1.21532 12.8375 1.48092 12.8375H13.504C13.7696 12.8375 13.9849 12.6224 13.9849 12.357V2.26569C13.9849 2.0003 13.7696 1.78516 13.504 1.78516Z" stroke="#6A80B9" stroke-width="2" stroke-miterlimit="10"/>
<path d="M4.34241 0V3.7458" stroke="#6A80B9" stroke-miterlimit="10"/>
<path d="M7.49243 0V3.7458" stroke="#6A80B9" stroke-miterlimit="10"/>
<path d="M10.6426 0V3.7458" stroke="#6A80B9" stroke-miterlimit="10"/>
<path d="M3.62109 6.03796H11.364" stroke="#6A80B9" stroke-miterlimit="10"/>
<path d="M3.62109 8.03223H11.364" stroke="#6A80B9" stroke-miterlimit="10"/>
<path d="M3.62109 10.0264H11.364" stroke="#6A80B9" stroke-miterlimit="10"/>
<path d="M5.37843 6.28663C5.07473 6.72729 4.69093 6.58721 4.33049 6.40044C3.97005 6.21367 3.62964 5.98896 3.41271 6.25453C3.17575 6.48216 3.35931 6.84694 3.45276 7.16796C3.5462 7.49189 3.55288 7.77205 2.96216 7.83333C2.49492 7.77789 2.52162 7.43936 2.59838 7.08041C2.67514 6.72146 2.79529 6.34208 2.49492 6.20783C2.25463 6.06776 2.08776 6.30998 1.87751 6.54928C1.66058 6.78566 1.41361 7.01621 1.00645 6.84694C0.639334 6.58138 0.779504 6.42671 0.973073 6.22826C1.16664 6.02982 1.41695 5.76425 1.27344 5.29732C1.21337 5.10763 0.913 5.15141 0.615972 5.14557C0.325619 5.13973 0.031928 5.0872 0.00189147 4.70782C-0.0214703 4.47728 0.175436 4.38389 0.379017 4.31093C0.585935 4.23798 0.796191 4.18545 0.799529 4.00159C0.809541 3.82358 0.672708 3.69809 0.585935 3.56676C0.499163 3.43544 0.462452 3.29828 0.66937 3.094C1.0198 2.84302 1.30014 3.05606 1.58048 3.28661C1.86082 3.51715 2.13782 3.75937 2.48157 3.56968C2.75524 3.41209 2.50494 3.13485 2.31137 2.86345C2.1178 2.59205 1.98097 2.33232 2.48157 2.21267C2.91544 2.10761 3.08231 2.36734 3.23249 2.66792C3.38601 2.96851 3.5195 3.30995 3.88662 3.37124C4.41059 3.45587 4.79105 2.9189 5.15483 2.49283C5.5186 2.06675 5.8757 1.74866 6.33293 2.27395C6.83354 2.82551 6.35629 3.08232 5.79894 3.30995C5.2416 3.52299 4.60082 3.70976 4.75434 4.12124C4.84445 4.36054 5.13814 4.22922 5.44852 4.13875C5.75556 4.04829 6.08596 3.99867 6.24615 4.41016C6.41636 4.84498 6.01254 4.94421 5.55865 4.98506C5.10477 5.02592 4.59748 5.00841 4.56411 5.20685C4.5274 5.41405 4.8311 5.49869 5.09475 5.62125C5.35841 5.74674 5.58201 5.91309 5.37843 6.28663ZM6.16606 6.95784C5.849 6.95784 5.68547 6.74189 5.68547 6.52009C5.68547 6.2983 5.84567 6.08235 6.16606 6.08235C6.4998 6.08235 6.66667 6.2983 6.66667 6.52009C6.66667 6.74189 6.4998 6.95784 6.16606 6.95784Z" fill="#FDE99D" fill-opacity="0.8"/>
<path d="M12.6078 11.2866C12.3041 11.7273 11.9203 11.5872 11.5599 11.4004C11.1994 11.2137 10.859 10.989 10.6421 11.2545C10.4051 11.4822 10.5887 11.8469 10.6821 12.168C10.7756 12.4919 10.7822 12.772 10.1915 12.8333C9.72429 12.7779 9.75099 12.4394 9.82775 12.0804C9.90451 11.7215 10.0247 11.3421 9.72429 11.2078C9.484 11.0678 9.31713 11.31 9.10688 11.5493C8.88995 11.7857 8.64298 12.0162 8.23582 11.8469C7.8687 11.5814 8.00887 11.4267 8.20244 11.2283C8.39601 11.0298 8.64632 10.7643 8.50281 10.2973C8.44274 10.1076 8.14237 10.1514 7.84534 10.1456C7.55499 10.1397 7.2613 10.0872 7.23126 9.70782C7.2079 9.47728 7.40481 9.38389 7.60839 9.31093C7.81531 9.23798 8.02556 9.18545 8.0289 9.00159C8.03891 8.82358 7.90208 8.69809 7.81531 8.56676C7.72853 8.43544 7.69182 8.29828 7.89874 8.094C8.24917 7.84302 8.52951 8.05606 8.80985 8.28661C9.09019 8.51715 9.36719 8.75937 9.71094 8.56968C9.98461 8.41209 9.73431 8.13485 9.54074 7.86345C9.34717 7.59205 9.21034 7.33232 9.71094 7.21267C10.1448 7.10761 10.3117 7.36734 10.4619 7.66792C10.6154 7.96851 10.7489 8.30995 11.116 8.37124C11.64 8.45587 12.0204 7.9189 12.3842 7.49283C12.748 7.06675 13.1051 6.74866 13.5623 7.27395C14.0629 7.82551 13.5857 8.08232 13.0283 8.30995C12.471 8.52299 11.8302 8.70976 11.9837 9.12124C12.0738 9.36054 12.3675 9.22922 12.6779 9.13875C12.9849 9.04829 13.3153 8.99867 13.4755 9.41016C13.6457 9.84498 13.2419 9.94421 12.788 9.98506C12.3341 10.0259 11.8269 10.0084 11.7935 10.2069C11.7568 10.4141 12.0605 10.4987 12.3241 10.6213C12.5878 10.7467 12.8114 10.9131 12.6078 11.2866ZM13.3954 11.9578C13.0784 11.9578 12.9148 11.7419 12.9148 11.5201C12.9148 11.2983 13.075 11.0823 13.3954 11.0823C13.7292 11.0823 13.896 11.2983 13.896 11.5201C13.896 11.7419 13.7292 11.9578 13.3954 11.9578Z" fill="#B0E9CA" fill-opacity="0.8"/>
</svg>
